<svg id="_x33_0" enable-background="new 0 0 64 64" height="512" viewBox="0 0 64 64" width="512" xmlns="http://www.w3.org/2000/svg" xmlns:xlink="http://www.w3.org/1999/xlink"><linearGradient id="SVGID_1_" gradientUnits="userSpaceOnUse" x1="32" x2="32" y1="63" y2="1"><stop offset="0" stop-color="#9f2fff"/><stop offset="1" stop-color="#0bb1d3"/></linearGradient><path d="m15.455 38.353c1.074 4.096 3.566 7.592 7.093 9.876 2.875 1.862 5.086 3.758 6.471 5.535-.62.55-1.019 1.344-1.019 2.236 0 1.03.523 1.94 1.316 2.481-.856 1.276-1.316 2.776-1.316 4.348v.171h2v-.171c0-1.424.513-2.767 1.441-3.829h1.117c.929 1.062 1.442 2.404 1.442 3.829v.171h2v-.171c0-1.571-.46-3.072-1.316-4.348.793-.541 1.316-1.451 1.316-2.481 0-.892-.399-1.686-1.019-2.236 1.386-1.777 3.596-3.673 6.471-5.535 3.527-2.284 6.019-5.78 7.093-9.876 7.479-2.953 13.093-9.649 14.421-18.058.022-.146.034-.293.034-.441 0-1.573-1.281-2.854-2.854-2.854-1.634 0-3.027 1.109-3.43 2.668-2.493 1.608-5.269 2.109-6.715 2.262v-11.93c0-4.962-4.038-9-9-9h-18.001c-4.962 0-9 4.038-9 9v11.932c-1.443-.15-4.211-.648-6.715-2.264-.404-1.558-1.797-2.668-3.431-2.668-1.573 0-2.854 1.281-2.854 2.854 0 .147.012.294.035.445 1.327 8.406 6.942 15.101 14.42 18.054zm17.545 16.647c.551 0 1 .449 1 1s-.449 1-1 1h-2c-.551 0-1-.449-1-1s.449-1 1-1zm7.365-8.45c-3.349 2.169-5.795 4.337-7.307 6.456-.02-.001-.038-.006-.058-.006h-2c-.02 0-.038.005-.058.006-1.512-2.118-3.958-4.287-7.307-6.456-2.724-1.765-4.747-4.355-5.845-7.401 2.007.555 4.12.851 6.3.851h15.82c2.18 0 4.293-.296 6.299-.851-1.097 3.047-3.12 5.637-5.844 7.401zm-25.744-22.562c.984.781 4.36 2.97 11.824 3.737l-1.334 3.777 6.889-4.605 6.889 4.605-1.334-3.777c7.465-.767 10.84-2.956 11.824-3.737.986-.047 3.761-.305 6.645-1.656-2.272 6.883-8.705 11.668-16.141 11.668h-15.766c-7.437 0-13.869-4.785-16.141-11.668 2.884 1.351 5.659 1.609 6.645 1.656zm20.379 2.51-3-2.005-3 2.005 1.146-3.245-2.85-1.905h3.523l1.181-3.345 1.181 3.345h3.523l-2.85 1.905zm1.257-2.446 4.126-2.758c3.776-.641 6.193-1.632 7.617-2.413v3.645c-.929.682-4.139 2.616-11.131 3.258zm11.743-14.052v6.526c-.764.561-3.121 1.999-8.088 2.821h-5.316l-2.596-7.35-2.596 7.351h-5.316c-4.967-.823-7.324-2.26-8.088-2.821v-6.527c0-.679.102-1.334.283-1.955 2.476 1.313 7.259 2.955 15.717 2.955s13.241-1.642 15.717-2.955c.181.621.283 1.276.283 1.955zm-32 8.881c1.423.781 3.84 1.772 7.617 2.413l4.126 2.758-.612 1.732c-7.002-.643-10.211-2.582-11.131-3.257zm7-15.881h18c2.468 0 4.637 1.287 5.884 3.221-2.032 1.093-6.518 2.779-14.884 2.779s-12.852-1.686-14.884-2.779c1.247-1.934 3.416-3.221 5.884-3.221zm-19.146 16c.757 0 1.402.541 1.534 1.287 1.607 9.105 9.483 15.713 18.729 15.713h15.766c9.246 0 17.123-6.608 18.729-15.713.131-.746.777-1.287 1.534-1.287.471 0 .854.383.854.854 0 .046-.004.092-.01.133-1.649 10.438-10.514 18.013-21.08 18.013h-15.82c-10.566 0-19.431-7.575-21.079-18.008-.007-.045-.011-.092-.011-.138 0-.471.383-.854.854-.854z" fill="url(#SVGID_1_)"/></svg>